<?xml version="1.0" encoding="UTF-8" standalone="no"?>
<svg
   xmlns:dc="http://purl.org/dc/elements/1.1/"
   xmlns:cc="http://creativecommons.org/ns#"
   xmlns:rdf="http://www.w3.org/1999/02/22-rdf-syntax-ns#"
   xmlns:svg="http://www.w3.org/2000/svg"
   xmlns="http://www.w3.org/2000/svg"
   xmlns:sodipodi="http://sodipodi.sourceforge.net/DTD/sodipodi-0.dtd"
   xmlns:inkscape="http://www.inkscape.org/namespaces/inkscape"
   id="svg4153"
   viewBox="0 0 32.000004 32"
   version="1.1"
   sodipodi:docname="plasmavault.svg"
   inkscape:version="0.92.3 (2405546, 2018-03-11)">
  <metadata
     id="metadata14">
    <rdf:RDF>
      <cc:Work
         rdf:about="">
        <dc:format>image/svg+xml</dc:format>
        <dc:type
           rdf:resource="http://purl.org/dc/dcmitype/StillImage" />
      </cc:Work>
    </rdf:RDF>
  </metadata>
  <defs
     id="defs12" />
  <sodipodi:namedview
     pagecolor="#ffffff"
     bordercolor="#666666"
     borderopacity="1"
     objecttolerance="10"
     gridtolerance="10"
     guidetolerance="10"
     inkscape:pageopacity="0"
     inkscape:pageshadow="2"
     inkscape:window-width="1366"
     inkscape:window-height="705"
     id="namedview10"
     showgrid="true"
     inkscape:zoom="7.375"
     inkscape:cx="40.362745"
     inkscape:cy="12.889228"
     inkscape:window-x="0"
     inkscape:window-y="0"
     inkscape:window-maximized="1"
     inkscape:current-layer="22-22-plasmavault">
    <inkscape:grid
       type="xygrid"
       id="grid821" />
  </sodipodi:namedview>
  <style
     type="text/css"
     id="current-color-scheme">
        .ColorScheme-Text {
            color:#ececec;
        }
    </style>
  <g
     id="22-22-plasmavault"
     transform="translate(49,4.999999)">
    <path
       id="rect4148"
       d="M 0,0 H 22 V 22 H 0 Z"
       inkscape:connector-curvature="0"
       style="fill:none" />
    <path
       style="color:#ececec;fill:#ececec;fill-opacity:1"
       d="m 52,9 v 14 h 8.644531 V 22 H 53 v -8 h 5 l 2.419922,-2 H 67 v 2 h 1 v -3 h -6.992188 l -2,-2 L 59,9.0078125 V 9 Z m 1,1 h 5.585938 L 59.589844,11.003906 57.570312,13 H 53 Z"
       transform="translate(-49,-4.999999)"
       id="path829"
       inkscape:connector-curvature="0"
       sodipodi:nodetypes="ccccccccccccccccccccccc" />
    <path
       sodipodi:nodetypes="ssccccccssssccss"
       style="color:#ececec;fill:#ececec;fill-opacity:1"
       inkscape:connector-curvature="0"
       class="ColorScheme-Text"
       d="m 17,10.000001 c 1.656855,0 3,1.343146 3,3.000001 v 0.999999 h 1 v 5 h -8 v -5 h 1 v -0.999999 c 0,-1.656855 1.343145,-3.000001 3,-3.000001 z m 0,1.000001 c -1.104569,0 -2,0.895431 -2,2 v 0.999999 h 4 v -0.999999 c 0,-1.104569 -0.895431,-2 -2,-2 z"
       id="path822" />
  </g>
  <g
     id="plasmavault">
    <path
       id="rect4230"
       d="m0-1e-6h32.000004v32h-32.000004z"
       fill="none" />
    <path
       id="path875"
       d="m4 4v24h24v-21h-11l-3-3zm1 1h8.585938l2.207031 2.2070312-5.792969 5.7929688h-5zm16 8a4 4 0 0 1 4 4v3h2v7h-12v-7h2v-3a4 4 0 0 1 4-4zm0 1a3.0003099 3 0 0 0-3 3v3h6v-3a3.0003099 3 0 0 0-3-3z"
       class="ColorScheme-Text"
       fill="currentColor" />
  </g>
</svg>
