<?xml version="1.0" encoding="UTF-8" standalone="no"?>
<svg
   xmlns:dc="http://purl.org/dc/elements/1.1/"
   xmlns:cc="http://creativecommons.org/ns#"
   xmlns:rdf="http://www.w3.org/1999/02/22-rdf-syntax-ns#"
   xmlns:svg="http://www.w3.org/2000/svg"
   xmlns="http://www.w3.org/2000/svg"
   xmlns:sodipodi="http://sodipodi.sourceforge.net/DTD/sodipodi-0.dtd"
   xmlns:inkscape="http://www.inkscape.org/namespaces/inkscape"
   viewBox="0 0 22 22"
   id="svg"
   version="1.1"
   inkscape:version="0.92.4 5da689c313, 2019-01-14"
   width="100%"
   height="100%"
   sodipodi:docname="preferences.svg">
  <defs
     id="defs81">
    <style
       id="current-color-scheme"
       type="text/css">
      .ColorScheme-Text {
        color:#7B7C7E;
      }
      .ColorScheme-Background{
        color:#EFF0F1;
      }
      .ColorScheme-Highlight{
        color:#3DAEE6;
      }
      .ColorScheme-ViewText {
        color:#7B7C7E;
      }
      .ColorScheme-ViewBackground{
        color:#FCFCFC;
      }
      .ColorScheme-ViewHover {
        color:#3DAEE6;
      }
      .ColorScheme-ViewFocus{
        color:#1E92FF;
      }
      .ColorScheme-ButtonText {
        color:#7B7C7E;
      }
      .ColorScheme-ButtonBackground{
        color:#EFF0F1;
      }
      .ColorScheme-ButtonHover {
        color:#3DAEE6;
      }
      .ColorScheme-ButtonFocus{
        color:#1E92FF;
      }
</style>
    <style
       id="current-color-scheme-5"
       type="text/css">
      .ColorScheme-Text {
        color:#31363b;
      }
      .ColorScheme-Background {
        color:#eff0f1;
      }
      .ColorScheme-Highlight {
        color:#3daee9;
      }
      .ColorScheme-ViewText {
        color:#31363b;
      }
      .ColorScheme-ViewBackground {
        color:#fcfcfc;
      }
      .ColorScheme-ViewHover {
        color:#93cee9;
      }
      .ColorScheme-ViewFocus{
        color:#3daee9;
      }
      .ColorScheme-ButtonText {
        color:#31363b;
      }
      .ColorScheme-ButtonBackground {
        color:#eff0f1;
      }
      .ColorScheme-ButtonHover {
        color:#93cee9;
      }
      .ColorScheme-ButtonFocus{
        color:#3daee9;
      }
      </style>
  </defs>
  <metadata
     id="metadata34">
    <rdf:RDF>
      <cc:Work
         rdf:about="">
        <dc:format>image/svg+xml</dc:format>
        <dc:type
           rdf:resource="http://purl.org/dc/dcmitype/StillImage" />
        <dc:title />
      </cc:Work>
    </rdf:RDF>
  </metadata>
  <sodipodi:namedview
     pagecolor="#00a257"
     bordercolor="#666666"
     borderopacity="1"
     objecttolerance="10"
     gridtolerance="10"
     guidetolerance="10"
     inkscape:pageopacity="0.10196078"
     inkscape:pageshadow="2"
     inkscape:window-width="1366"
     inkscape:window-height="707"
     id="namedview32"
     showgrid="true"
     inkscape:zoom="11.313708"
     inkscape:cx="24.325869"
     inkscape:cy="-73.230693"
     inkscape:window-x="0"
     inkscape:window-y="0"
     inkscape:window-maximized="1"
     inkscape:current-layer="svg"
     borderlayer="true"
     showguides="true"
     inkscape:guide-bbox="true"
     inkscape:snap-bbox="true"
     inkscape:snap-nodes="true"
     inkscape:snap-bbox-edge-midpoints="true"
     inkscape:snap-global="true"
     inkscape:bbox-nodes="true">
    <inkscape:grid
       type="xygrid"
       id="grid3046"
       empspacing="5"
       visible="true"
       enabled="true"
       snapvisiblegridlinesonly="true"
       color="#0000ff"
       opacity="0.03921569"
       empcolor="#0000ff"
       empopacity="0.07843137" />
    <sodipodi:guide
       orientation="0,1"
       position="23,19"
       id="guide3820"
       inkscape:locked="false" />
    <sodipodi:guide
       orientation="0,1"
       position="24,3"
       id="guide3822"
       inkscape:locked="false" />
    <sodipodi:guide
       orientation="1,0"
       position="11,10"
       id="guide3824"
       inkscape:locked="false" />
    <sodipodi:guide
       orientation="0,1"
       position="21,11"
       id="guide3826"
       inkscape:locked="false" />
    <sodipodi:guide
       position="38,-76"
       orientation="0,1"
       id="guide860"
       inkscape:locked="false" />
    <sodipodi:guide
       position="41,-90"
       orientation="0,1"
       id="guide862"
       inkscape:locked="false" />
  </sodipodi:namedview>
  <g
     id="preferences-desktop-display-randr"
     transform="translate(0,-1)">
    <rect
       style="fill:#ffffff;fill-opacity:0;stroke:none"
       id="rect3832"
       width="22"
       height="22"
       x="1"
       y="1" />
    <path
       id="rect7235"
       style="color:#31363b;fill:#dcdcdc;fill-opacity:1;stroke:none;stroke-opacity:1"
       d="M 7.0000091,19.999986 H 17.000027 V 21 H 7.0000091 Z m 3.0000049,-1.999998 h 3.999994 v 1.999983 H 10.000014 Z M 2,4.0000055 V 17.999973 H 21.999999 V 4.0000055 Z m 0.9999988,0.999999 H 21 V 14.999977 H 2.9999988 Z"
       class="ColorScheme-Text"
       inkscape:connector-curvature="0"
       sodipodi:nodetypes="cccccccccccccccccccc" />
    <path
       style="color:#31363b;fill:#dcdcdc;fill-opacity:1;stroke:none;stroke-opacity:1"
       d="m 4,10 4,4 H 4 Z"
       id="rect3018"
       inkscape:connector-curvature="0"
       sodipodi:nodetypes="cccc"
       class="ColorScheme-Text" />
    <path
       class="ColorScheme-Text"
       sodipodi:nodetypes="cccc"
       inkscape:connector-curvature="0"
       id="path3028"
       d="M 20,10 16,6 h 4 z"
       style="color:#31363b;fill:#dcdcdc;fill-opacity:1;stroke:none;stroke-opacity:1" />
  </g>
  <g
     id="preferences-desktop-notification"
     transform="translate(-1,39)">
    <rect
       y="1"
       x="1"
       height="22"
       width="22"
       id="rect3068"
       style="fill:#ffffff;fill-opacity:0;stroke:none" />
    <rect
       style="fill:#3daee9;fill-opacity:1;stroke:none"
       id="rect4130-82-0"
       width="15.999978"
       height="15.999987"
       x="4.000011"
       y="4"
       ry="7.999989" />
    <path
       inkscape:connector-curvature="0"
       style="fill:#fcfcfc;fill-opacity:1;stroke:none"
       d="m 11.202644,7.1999826 -0.0026,7.2000124 1.599998,0 0.0026,-7.2000124 z m 0.799999,7.9999894 c -0.441822,0 -0.799999,0.358171 -0.799999,0.799999 0,0.441827 0.358177,0.799999 0.799999,0.799999 0.441822,0 0.799999,-0.358172 0.799999,-0.799999 0,-0.441828 -0.358177,-0.799999 -0.799999,-0.799999 z"
       id="rect4142-6"
       sodipodi:nodetypes="cccccsssss" />
  </g>
  <g
     transform="translate(-22,94)"
     id="22-22-preferences-system-bluetooth">
    <rect
       y="0"
       x="66"
       height="22"
       width="22"
       id="rect4645"
       style="fill:none;stroke:none" />
    <path
       d="m 76.5,4.0000059 c 0,0 -0.215,0.02 -0.306,0.064 -0.186786,0.09628 -0.303827,0.283158 -0.305,0.487 v 7.5490001 l 0.032,-0.03 v 4.853 l 0.303,0.488 0.394,0.215 0.741,0.345 0.389,-13.7490001 z"
       id="path2-9"
       inkscape:connector-curvature="0"
       style="opacity:0.2;fill:#dcdcdc"
       sodipodi:nodetypes="ccccccccccc" />
    <path
       style="fill:#dcdcdc"
       d="m 81.209,12.793006 -2.57,-1.705 2.508,-1.6780001 c 0.488,-0.322 0.794,-0.882 0.794,-1.47 0,-0.589 -0.277,-1.149 -0.794,-1.471 l -3.273,-2.179 c -0.184061,-0.113083 -0.416611,-0.12374 -0.611,-0.028 -0.189137,0.10051 -0.306697,0.291976 -0.307,0.5 v 4.885 l -3.885,-3.74 c -0.232655,-0.236475 -0.623345,-0.236475 -0.856,0 -0.244953,0.223711 -0.244953,0.600289 0,0.824 l 4.483,4.3390001 -4.515,4.343 c -0.244224,0.223619 -0.244224,0.599381 0,0.823 0.236768,0.235434 0.619232,0.235434 0.856,0 l 3.946,-3.768 v 4.973 c 0,0.206 0.125,0.413 0.306,0.5 0.241,0.12 0.52,0.029 0.642,-0.028 l 3.273,-2.178 c 0.488,-0.322 0.794,-0.882 0.794,-1.47 0.01413,-0.595769 -0.286375,-1.154993 -0.791,-1.472 z m -3.026,-6.9430001 2.355,1.53 c 0.177996,0.121534 0.28176,0.320071 0.277,0.53 0.0061,0.209717 -0.09809,0.408243 -0.277,0.528 l -2.355,1.56 z m 2.355,8.9160001 -2.355,1.56 v -4.15 l 2.355,1.53 c 0.177688,0.121334 0.281412,0.319422 0.277,0.529 0.0037,0.209914 -0.09975,0.408275 -0.277,0.531 z"
       id="path4-0"
       inkscape:connector-curvature="0"
       sodipodi:nodetypes="cccscccccccccccccsccccccccccccccccc" />
  </g>
  <g
     id="22-22-preferences-system-bluetooth-activated"
     transform="translate(0,94)">
    <rect
       style="fill:none;stroke:none"
       id="rect4674"
       width="22"
       height="22"
       x="66"
       y="0" />
    <path
       inkscape:connector-curvature="0"
       style="color:#31363b;text-decoration:none;text-decoration-line:none;display:inline;overflow:visible;visibility:visible;fill:#dcdcdc;fill-opacity:1;fill-rule:nonzero;stroke:none;stroke-width:0.93541437;stroke-opacity:1;enable-background:accumulate"
       d="m 67,10.125 c -0.552285,0 -1,0.391751 -1,0.875 0,0.483249 0.447715,0.875 1,0.875 0.552285,0 1,-0.391751 1,-0.875 0,-0.483249 -0.447715,-0.875 -1,-0.875 z m 4,0 c -0.552285,0 -1,0.391751 -1,0.875 0,0.483249 0.447715,0.875 1,0.875 0.552285,0 1,-0.391751 1,-0.875 0,-0.483249 -0.447715,-0.875 -1,-0.875 z m 12,0 c -0.552285,0 -1,0.391751 -1,0.875 0,0.483249 0.447715,0.875 1,0.875 0.552285,0 1,-0.391751 1,-0.875 0,-0.483249 -0.447715,-0.875 -1,-0.875 z m 4,0 c -0.552285,0 -1,0.391751 -1,0.875 0,0.483249 0.447715,0.875 1,0.875 0.552285,0 1,-0.391751 1,-0.875 0,-0.483249 -0.447715,-0.875 -1,-0.875 z"
       id="path4676"
       class="ColorScheme-Text"
       sodipodi:nodetypes="ssssssssssssssssssss" />
    <path
       d="m 76.5,4.0000059 c 0,0 -0.215,0.02 -0.306,0.064 -0.186786,0.09628 -0.303827,0.283158 -0.305,0.487 v 7.5490001 l 0.032,-0.03 v 4.853 l 0.303,0.488 0.394,0.215 0.741,0.345 0.389,-13.7490001 z"
       id="path2-3"
       inkscape:connector-curvature="0"
       style="opacity:0.2;fill:#dcdcdc"
       sodipodi:nodetypes="ccccccccccc" />
    <path
       style="fill:#dcdcdc"
       d="m 81.209,12.793006 -2.57,-1.705 2.508,-1.6780001 c 0.488,-0.322 0.794,-0.882 0.794,-1.47 0,-0.589 -0.277,-1.149 -0.794,-1.471 l -3.273,-2.179 c -0.184061,-0.113083 -0.416611,-0.12374 -0.611,-0.028 -0.189137,0.10051 -0.306697,0.291976 -0.307,0.5 v 4.885 l -3.885,-3.74 c -0.232655,-0.236475 -0.623345,-0.236475 -0.856,0 -0.244953,0.223711 -0.244953,0.600289 0,0.824 l 4.483,4.3390001 -4.515,4.343 c -0.244224,0.223619 -0.244224,0.599381 0,0.823 0.236768,0.235434 0.619232,0.235434 0.856,0 l 3.946,-3.768 v 4.973 c 0,0.206 0.125,0.413 0.306,0.5 0.241,0.12 0.52,0.029 0.642,-0.028 l 3.273,-2.178 c 0.488,-0.322 0.794,-0.882 0.794,-1.47 0.01413,-0.595769 -0.286375,-1.154993 -0.791,-1.472 z m -3.026,-6.9430001 2.355,1.53 c 0.177996,0.121534 0.28176,0.320071 0.277,0.53 0.0061,0.209717 -0.09809,0.408243 -0.277,0.528 l -2.355,1.56 z m 2.355,8.9160001 -2.355,1.56 v -4.15 l 2.355,1.53 c 0.177688,0.121334 0.281412,0.319422 0.277,0.529 0.0037,0.209914 -0.09975,0.408275 -0.277,0.531 z"
       id="path4-6"
       inkscape:connector-curvature="0"
       sodipodi:nodetypes="cccscccccccccccccsccccccccccccccccc" />
  </g>
  <g
     id="22-22-preferences-system-bluetooth-inactive"
     transform="translate(-44,94)">
    <rect
       style="fill:none;stroke:none"
       id="rect4162"
       width="22"
       height="22"
       x="66"
       y="0" />
    <path
       d="m 76.5,4.0145 c 0,0 -0.215,0.02 -0.306,0.064 -0.186786,0.096277 -0.303827,0.2831578 -0.305,0.487 v 7.549 l 0.032,-0.03 v 4.853 l 0.303,0.488 0.394,0.215 1.050359,0.345 0.07964,-13.749 z"
       id="path2"
       inkscape:connector-curvature="0"
       style="opacity:0.2;fill:#dcdcdc"
       sodipodi:nodetypes="ccccccccccc" />
    <path
       style="opacity:0.6;fill:#dcdcdc"
       d="m 81.209,12.8075 -2.57,-1.705 2.508,-1.678 c 0.488,-0.322 0.794,-0.882 0.794,-1.47 0,-0.589 -0.277,-1.149 -0.794,-1.471 l -3.273,-2.179 c -0.184061,-0.1130826 -0.416611,-0.1237396 -0.611,-0.028 -0.189137,0.1005099 -0.306697,0.2919758 -0.307,0.5 v 4.885 l -3.885,-3.74 c -0.232655,-0.2364745 -0.623345,-0.2364745 -0.856,0 -0.244953,0.2237113 -0.244953,0.6002887 0,0.824 l 4.483,4.339 -4.515,4.343 c -0.244224,0.223619 -0.244224,0.599381 0,0.823 0.236768,0.235434 0.619232,0.235434 0.856,0 l 3.946,-3.768 v 4.973 c 0,0.206 0.125,0.413 0.306,0.5 0.241,0.12 0.52,0.029 0.642,-0.028 l 3.273,-2.178 c 0.488,-0.322 0.794,-0.882 0.794,-1.47 0.01413,-0.595769 -0.286375,-1.154993 -0.791,-1.472 z m -3.026,-6.943 2.355,1.53 c 0.177996,0.1215338 0.28176,0.3200707 0.277,0.53 0.0061,0.2097168 -0.09809,0.408243 -0.277,0.528 l -2.355,1.56 z m 2.355,8.916 -2.355,1.56 v -4.15 l 2.355,1.53 c 0.177688,0.121334 0.281412,0.319422 0.277,0.529 0.0037,0.209914 -0.09975,0.408275 -0.277,0.531 z"
       id="path4"
       inkscape:connector-curvature="0"
       sodipodi:nodetypes="cccscccccccccccccsccccccccccccccccc" />
  </g>
  <g
     id="preferences-system-bluetooth"
     transform="translate(44,94)">
    <rect
       style="fill:none;stroke:none"
       id="rect4168"
       width="32"
       height="32"
       x="-5"
       y="22" />
    <path
       id="rect4331"
       d="m 11,26 v 0.410156 10.587891 L 5.0019531,31 4.296875,31.705078 10.589844,38 4.296875,44.294922 5.0019531,45 11,39.001953 V 50 h 1 0.002 L 18,44.001953 V 44 43.998 L 12.001953,38 18,32.001953 V 32 31.998 L 12.001953,26 H 12 Z M 12,27.410156 16.587891,32 12,36.589844 Z m 0,12 L 16.587891,44 12,48.589844 Z"
       style="color:#31363b;fill:#dcdcdc;fill-opacity:1;stroke:none;stroke-opacity:1"
       inkscape:connector-curvature="0"
       class="ColorScheme-Text" />
  </g>
  <g
     id="preferences-system-bluetooth-activated"
     transform="translate(44,94)">
    <rect
       y="22"
       x="27"
       height="32"
       width="32"
       id="rect4422"
       style="fill:none;stroke:none" />
    <path
       id="path4424"
       d="m 43,26 v 0.410156 10.587891 L 37.001953,31 36.296875,31.705078 42.589844,38 36.296875,44.294922 37.001953,45 43,39.001953 V 50 h 1 0.002 L 50,44.001953 V 44 43.998 L 44.001953,38 50,32.001953 V 32 31.998 L 44.001953,26 H 44 Z M 44,27.410156 48.587891,32 44,36.589844 Z M 30,37 a 1,1 0 0 0 -1,1 1,1 0 0 0 1,1 1,1 0 0 0 1,-1 1,1 0 0 0 -1,-1 z m 6,0 a 1,1 0 0 0 -1,1 1,1 0 0 0 1,1 1,1 0 0 0 1,-1 1,1 0 0 0 -1,-1 z m 14,0 a 1,1 0 0 0 -1,1 1,1 0 0 0 1,1 1,1 0 0 0 1,-1 1,1 0 0 0 -1,-1 z m 6,0 a 1,1 0 0 0 -1,1 1,1 0 0 0 1,1 1,1 0 0 0 1,-1 1,1 0 0 0 -1,-1 z M 44,39.410156 48.587891,44 44,48.589844 Z"
       style="color:#31363b;fill:#dcdcdc;fill-opacity:1;stroke:none;stroke-opacity:1"
       inkscape:connector-curvature="0"
       class="ColorScheme-Text" />
  </g>
  <g
     id="preferences-system-bluetooth-inactive"
     transform="translate(44,94)">
    <rect
       style="fill:none;stroke:none"
       id="rect4426"
       width="32"
       height="32"
       x="-37"
       y="22" />
    <path
       id="path4428"
       d="m -21,26 v 0.410156 10.587891 L -26.998047,31 -27.703125,31.705078 -21.410156,38 -27.703125,44.294922 -26.998047,45 -21,39.001953 V 50 h 1 0.002 L -14,44.001953 v -0.002 -0.002 L -19.998047,38 -14,32.001953 V 32 31.998 L -19.998047,26 H -20 Z m 1,1.410156 L -15.412109,32 -20,36.589844 Z m 0,12 L -15.412109,44 -20,48.589844 Z"
       style="color:#31363b;opacity:0.5;fill:#dcdcdc;fill-opacity:1;stroke:none;stroke-opacity:1"
       inkscape:connector-curvature="0"
       class="ColorScheme-Text" />
  </g>
  <g
     id="preferences-system-bluetooth-battery"
     transform="translate(44,126)">
    <rect
       style="fill:none;stroke:none"
       id="rect4168-3"
       width="32"
       height="32"
       x="-5"
       y="22" />
    <path
       id="rect4331-5"
       d="m 11,26 v 0.410156 10.587891 L 5.0019531,31 4.296875,31.705078 10.589844,38 4.296875,44.294922 5.0019531,45 11,39.001953 V 50 h 1 0.002 L 18,44.001953 V 44 43.998 L 12.001953,38 18,32.001953 V 32 31.998 L 12.001953,26 H 12 Z M 12,27.410156 16.587891,32 12,36.589844 Z m 0,12 L 16.587891,44 12,48.589844 Z"
       style="color:#31363b;fill:#dcdcdc;fill-opacity:1;stroke:none;stroke-opacity:1"
       inkscape:connector-curvature="0"
       class="ColorScheme-Text" />
  </g>
</svg>
